<?xml version="1.0" standalone="no"?>
<!DOCTYPE svg PUBLIC "-//W3C//DTD SVG 20010904//EN"
 "http://www.w3.org/TR/2001/REC-SVG-20010904/DTD/svg10.dtd">
<svg version="1.0" xmlns="http://www.w3.org/2000/svg"
 width="900.000000pt" height="135.000000pt" viewBox="0 0 900.000000 135.000000"
 preserveAspectRatio="xMidYMid meet" >
<metadata>
Created by potrace 1.10, written by Peter Selinger 2001-2011
</metadata>
<g transform="translate(0.000000,135.000000) scale(0.100000,-0.100000)"
fill="#4068cf" stroke="none">
<path d="M210 1284 c-86 -14 -137 -42 -173 -94 -14 -21 -17 -51 -17 -202 0
-160 2 -181 21 -217 37 -71 135 -126 274 -152 42 -8 93 -21 188 -48 83 -23
120 -61 136 -136 10 -50 10 -70 -3 -124 -20 -85 -42 -106 -123 -121 -58 -11
-278 -10 -458 3 -29 2 -30 1 -35 -52 -9 -84 -6 -85 290 -90 237 -3 250 -2 316
20 72 24 144 84 144 119 0 10 7 34 15 53 10 23 15 69 15 127 0 58 -5 104 -15
127 -8 19 -15 43 -15 52 0 26 -78 110 -123 132 -23 11 -60 24 -82 29 -64 14
-127 31 -175 46 -25 8 -55 14 -66 14 -26 0 -101 33 -130 57 -12 10 -29 40 -38
67 -33 102 -9 204 59 244 39 23 44 23 285 20 l245 -3 0 60 0 60 -105 8 c-174
12 -361 13 -430 1z"/>
<path d="M6000 1291 c-14 -5 -39 -9 -55 -10 -43 -1 -144 -56 -183 -99 -31 -34
-52 -72 -82 -147 -18 -46 -50 -277 -50 -365 0 -88 32 -319 50 -365 45 -112 94
-175 162 -207 18 -9 46 -22 62 -29 42 -20 477 -20 524 0 32 13 33 16 27 50
-10 53 -17 56 -87 42 -92 -17 -323 -19 -378 -2 -155 47 -196 112 -224 357 -17
143 -17 160 0 305 24 222 65 300 183 348 44 18 352 27 407 12 46 -13 70 -1 79
39 10 45 -6 57 -88 64 -135 12 -322 15 -347 7z"/>
<path d="M8485 1178 c-3 -7 -6 -69 -7 -138 l-3 -125 -74 0 -75 0 -9 -32 c-16
-52 0 -62 89 -56 l74 6 0 -322 c0 -296 2 -325 19 -359 43 -85 89 -103 244
-100 l122 3 3 39 c2 21 -1 43 -7 49 -7 7 -47 10 -99 8 -77 -2 -91 0 -121 21
-20 13 -38 36 -42 52 -5 16 -8 159 -8 319 l-1 289 138 -2 c75 -2 143 -2 150
-1 9 1 12 14 10 44 l-3 42 -145 0 -145 1 3 127 c4 140 8 131 -66 141 -30 5
-44 3 -47 -6z"/>
<path d="M1300 944 c-146 -24 -202 -46 -255 -97 -69 -69 -95 -161 -95 -345 0
-245 47 -354 179 -420 54 -26 63 -27 243 -30 147 -3 200 0 250 13 34 9 67 20
72 25 11 11 0 71 -18 95 -12 17 -17 18 -42 6 -19 -9 -84 -15 -194 -18 -153 -4
-169 -3 -213 17 -26 11 -57 34 -69 50 -24 33 -58 124 -58 157 l0 23 213 -6
c193 -5 217 -4 267 13 102 36 141 122 127 280 -8 87 -49 148 -126 192 -46 25
-225 54 -281 45z m133 -138 c85 -16 114 -42 123 -108 4 -25 4 -66 0 -90 -11
-73 -28 -78 -260 -78 l-196 0 0 43 c0 44 31 150 53 178 20 26 58 43 122 55 80
15 80 15 158 0z"/>
<path d="M2290 947 c-5 -5 -35 -7 -265 -23 -131 -9 -139 -13 -130 -72 4 -26
10 -50 14 -54 3 -4 92 -1 197 6 300 22 338 7 351 -138 5 -61 3 -76 -8 -77 -8
0 -106 0 -219 1 -184 1 -210 -1 -250 -19 -53 -23 -90 -61 -114 -117 -21 -49
-18 -207 6 -267 37 -93 116 -137 247 -137 116 0 207 34 294 110 25 22 50 40
56 40 6 0 11 -30 13 -72 l3 -73 59 0 60 0 -3 360 c-2 339 -3 362 -23 403 -25
53 -72 90 -137 107 -61 16 -145 28 -151 22z m165 -556 c1 -98 -5 -107 -108
-158 -169 -84 -287 -83 -326 4 -35 76 -18 196 32 221 19 10 212 19 362 18 l40
-1 0 -84z"/>
<path d="M3040 943 c-62 -5 -145 -26 -161 -40 -8 -7 -20 -13 -25 -13 -16 -1
-40 -43 -58 -103 -27 -85 -10 -181 42 -247 31 -40 137 -80 262 -100 25 -4 58
-12 73 -19 16 -6 39 -11 51 -11 13 0 46 -9 74 -21 39 -16 53 -28 61 -52 26
-72 3 -127 -64 -152 -39 -15 -73 -17 -264 -13 l-219 4 -5 -45 c-9 -84 -19 -81
261 -80 205 0 256 3 297 17 115 39 140 77 140 217 0 86 -3 105 -23 136 -34 55
-95 91 -187 109 -38 7 -61 12 -197 46 -32 8 -66 14 -76 14 -9 0 -34 14 -55 31
-34 28 -37 35 -37 82 1 78 19 96 110 106 40 4 150 4 243 -1 94 -5 176 -7 182
-4 11 4 22 40 28 91 2 18 -7 21 -118 31 -155 14 -291 21 -335 17z"/>
<path d="M4025 945 c-5 -1 -44 -9 -85 -15 -41 -7 -88 -20 -105 -29 -42 -22
-125 -102 -125 -121 0 -9 -5 -21 -12 -28 -11 -11 -18 -45 -39 -186 -10 -67 -9
-97 6 -190 22 -144 68 -242 125 -269 8 -4 22 -11 30 -16 61 -38 95 -44 239
-43 119 0 156 4 199 20 57 20 142 84 142 105 0 7 5 18 11 24 7 7 20 36 30 65
26 74 29 375 4 446 -48 135 -109 191 -240 220 -55 12 -164 22 -180 17z m101
-136 c147 -27 183 -89 183 -319 0 -254 -50 -320 -243 -320 -173 0 -222 44
-246 218 -9 75 -9 115 0 195 19 157 48 197 165 223 67 16 72 16 141 3z"/>
<path d="M5095 931 c-39 -10 -79 -23 -90 -28 -73 -37 -95 -50 -134 -80 -24
-18 -52 -33 -62 -33 -16 0 -18 7 -12 65 l6 66 -69 -3 c-58 -3 -69 -6 -68 -20
0 -10 1 -205 2 -433 l2 -416 73 3 72 3 3 309 c1 194 6 314 13 322 18 22 213
111 269 123 40 8 66 8 95 0 71 -20 69 -13 75 -404 l5 -350 75 0 74 0 -3 375
c-3 373 -3 375 -26 415 -52 87 -168 120 -300 86z"/>
<path d="M6855 929 c-22 -4 -71 -9 -110 -9 -110 -3 -120 -8 -120 -60 l0 -45
35 2 c19 2 105 7 190 13 85 5 183 7 218 4 56 -6 66 -10 91 -41 24 -29 29 -46
34 -115 4 -45 5 -84 2 -86 -2 -3 -102 -4 -222 -3 -201 2 -221 1 -263 -18 -106
-49 -120 -79 -120 -255 0 -106 3 -136 15 -146 8 -7 15 -18 15 -25 0 -16 26
-38 82 -69 39 -22 59 -26 126 -26 114 0 201 31 304 108 78 58 92 57 85 -11
-10 -83 -3 -97 49 -97 l44 0 0 345 c0 289 -3 352 -16 391 -18 53 -52 104 -69
104 -6 0 -16 5 -23 12 -33 33 -242 49 -347 27z m338 -534 c-1 -55 -2 -103 -3
-107 0 -9 -119 -81 -165 -100 -36 -15 -76 -26 -159 -43 -40 -8 -117 20 -141
53 -16 21 -21 46 -23 117 -3 102 6 128 57 162 34 23 40 23 235 21 l201 -3 -2
-100z"/>
<path d="M7675 928 c-133 -34 -160 -72 -160 -223 1 -81 5 -108 19 -131 35 -55
96 -91 176 -104 267 -42 371 -75 384 -123 13 -50 6 -124 -14 -150 -40 -50
-100 -60 -331 -55 -136 3 -212 1 -219 -6 -14 -14 -13 -59 2 -74 9 -9 79 -12
255 -12 197 0 251 3 290 16 103 35 133 83 133 214 0 80 -3 95 -26 131 -40 65
-110 97 -254 119 -36 6 -78 15 -94 20 -16 6 -44 10 -62 10 -50 0 -121 35 -137
67 -35 69 -27 141 20 185 24 23 28 23 276 23 l252 0 3 41 3 42 -73 6 c-147 12
-403 15 -443 4z"/>
</g>
</svg>
